<svg xmlns="http://www.w3.org/2000/svg"  viewBox="0 0 100 100" width="100px" height="100px"><path fill="#c7ede6" d="M87.215,56.71C88.35,54.555,89,52.105,89,49.5c0-6.621-4.159-12.257-10.001-14.478 C78.999,35.015,79,35.008,79,35c0-11.598-9.402-21-21-21c-9.784,0-17.981,6.701-20.313,15.757C36.211,29.272,34.638,29,33,29 c-7.692,0-14.023,5.793-14.89,13.252C12.906,43.353,9,47.969,9,53.5C9,59.851,14.149,65,20.5,65c0.177,0,0.352-0.012,0.526-0.022 C21.022,65.153,21,65.324,21,65.5C21,76.822,30.178,86,41.5,86c6.437,0,12.175-2.972,15.934-7.614C59.612,80.611,62.64,82,66,82 c4.65,0,8.674-2.65,10.666-6.518C77.718,75.817,78.837,76,80,76c6.075,0,11-4.925,11-11C91,61.689,89.53,58.727,87.215,56.71z"/><path fill="#fdfcef" d="M77.5,54.5V55h3v-0.5c0,0,4.242,0,5.5,0c2.485,0,4.5-2.015,4.5-4.5 c0-2.333-1.782-4.229-4.055-4.455C86.467,45.364,86.5,45.187,86.5,45c0-2.485-2.015-4.5-4.5-4.5 c-1.438,0-2.703,0.686-3.527,1.736C78.333,39.6,76.171,37.5,73.5,37.5c-2.761,0-5,2.239-5,5c0,0.446,0.077,0.87,0.187,1.282 C68.045,43.005,67.086,42.5,66,42.5c-1.781,0-3.234,1.335-3.455,3.055C62.364,45.533,62.187,45.5,62,45.5 c-2.485,0-4.5,2.015-4.5,4.5s2.015,4.5,4.5,4.5s9.5,0,9.5,0H77.5z"/><path fill="#472b29" d="M73.5,37c-3.033,0-5.5,2.467-5.5,5.5c0,0.016,0,0.031,0,0.047C67.398,42.192,66.71,42,66,42 c-1.831,0-3.411,1.261-3.858,3.005C62.095,45.002,62.048,45,62,45c-2.757,0-5,2.243-5,5s2.243,5,5,5h15.5 c0.276,0,0.5-0.224,0.5-0.5S77.776,54,77.5,54H62c-2.206,0-4-1.794-4-4s1.794-4,4-4c0.117,0,0.23,0.017,0.343,0.032l0.141,0.019 c0.021,0.003,0.041,0.004,0.062,0.004c0.246,0,0.462-0.185,0.495-0.437C63.232,44.125,64.504,43,66,43 c0.885,0,1.723,0.401,2.301,1.1c0.098,0.118,0.241,0.182,0.386,0.182c0.078,0,0.156-0.018,0.228-0.056 c0.209-0.107,0.314-0.346,0.254-0.573C69.054,43.218,69,42.852,69,42.5c0-2.481,2.019-4.5,4.5-4.5 c2.381,0,4.347,1.872,4.474,4.263c0.011,0.208,0.15,0.387,0.349,0.45c0.05,0.016,0.101,0.024,0.152,0.024 c0.15,0,0.296-0.069,0.392-0.192C79.638,41.563,80.779,41,82,41c2.206,0,4,1.794,4,4c0,0.117-0.017,0.23-0.032,0.343 l-0.019,0.141c-0.016,0.134,0.022,0.268,0.106,0.373s0.207,0.172,0.34,0.185C88.451,46.247,90,47.949,90,50c0,2.206-1.794,4-4,4 h-5.5c-0.276,0-0.5,0.224-0.5,0.5s0.224,0.5,0.5,0.5H86c2.757,0,5-2.243,5-5c0-2.397-1.689-4.413-4.003-4.877 C86.999,45.082,87,45.041,87,45c0-2.757-2.243-5-5-5c-1.176,0-2.293,0.416-3.183,1.164C78.219,38.76,76.055,37,73.5,37L73.5,37z"/><path fill="#472b29" d="M72,44c-1.403,0-2.609,0.999-2.913,2.341C68.72,46.119,68.301,46,67.875,46 c-1.202,0-2.198,0.897-2.353,2.068C65.319,48.022,65.126,48,64.938,48c-1.529,0-2.811,1.2-2.918,2.732 C62.01,50.87,62.114,50.99,62.251,51c0.006,0,0.012,0,0.018,0c0.13,0,0.24-0.101,0.249-0.232 c0.089-1.271,1.151-2.268,2.419-2.268c0.229,0,0.47,0.042,0.738,0.127c0.022,0.007,0.045,0.01,0.067,0.01 c0.055,0,0.11-0.02,0.156-0.054C65.962,48.537,66,48.455,66,48.375c0-1.034,0.841-1.875,1.875-1.875 c0.447,0,0.885,0.168,1.231,0.473c0.047,0.041,0.106,0.063,0.165,0.063c0.032,0,0.063-0.006,0.093-0.019 c0.088-0.035,0.148-0.117,0.155-0.212C69.623,45.512,70.712,44.5,72,44.5c0.208,0,0.425,0.034,0.682,0.107 c0.023,0.007,0.047,0.01,0.07,0.01c0.109,0,0.207-0.073,0.239-0.182c0.038-0.133-0.039-0.271-0.172-0.309 C72.517,44.04,72.256,44,72,44L72,44z M85.883,45.5c-1.326,0-2.508,0.897-2.874,2.182c-0.038,0.133,0.039,0.271,0.172,0.309 C83.205,47.997,83.228,48,83.25,48c0.109,0,0.209-0.072,0.24-0.182C83.795,46.748,84.779,46,85.883,46 c0.117,0,0.23,0.014,0.342,0.029c0.012,0.002,0.023,0.003,0.035,0.003c0.121,0,0.229-0.092,0.246-0.217 c0.019-0.137-0.077-0.263-0.214-0.281C86.158,45.516,86.022,45.5,85.883,45.5L85.883,45.5z"/><path fill="#78a0cf" d="M52,26.75c-12.841,0-23.25,10.409-23.25,23.25S39.159,73.25,52,73.25S75.25,62.841,75.25,50 S64.841,26.75,52,26.75z"/><path fill="#a6ce4e" d="M75.123,49.251c-0.065,0.047-0.131,0.093-0.196,0.14c-0.159,0.121-0.355,0.252-0.561,0.42 c-0.019,0.009-0.037,0.019-0.056,0.037c-0.187,0.131-0.374,0.28-0.589,0.43c-0.009,0.009-0.028,0.019-0.037,0.028 c-0.196,0.149-0.402,0.308-0.617,0.476c-0.878,0.701-1.868,1.551-2.821,2.494c-0.925,0.916-1.822,1.924-2.522,2.952l0.103,0.374 c0.607,2.037,1.423,4.971,2.08,7.087c-3.97,5.82-11.263,8.86-18.83,8.86c-2.971,0-5.801-0.589-8.389-1.663l-1.672-5.409 c-0.056-0.028-0.112-0.056-0.178-0.084c-1.168-0.551-2.719-1.214-4.54-1.84c-1.112-0.374-2.326-0.729-3.615-1.037 c-0.019,0-0.037-0.009-0.056-0.009c-0.271-0.065-0.542-0.121-0.822-0.187c-0.028-0.009-0.065-0.009-0.093-0.019 c-0.234-0.047-0.458-0.093-0.701-0.131c-0.047-0.009-0.084-0.019-0.131-0.028c-0.131-0.028-0.28-0.056-0.42-0.075 c-0.607-0.103-0.962-0.775-0.673-1.317c0.056-0.103,0.121-0.206,0.196-0.308c0.037-0.065,0.084-0.131,0.14-0.196 c0.093-0.131,0.196-0.243,0.318-0.355c0.047-0.056,0.112-0.112,0.168-0.159c0.112-0.103,0.224-0.196,0.355-0.28 c0.056-0.056,0.121-0.093,0.187-0.14c1.691-1.102,4.307-1.401,6.474-1.037c0.439,0.065,0.85,0.168,1.243,0.299l-0.075-0.252 c0,0-0.009-0.019-0.019-0.047l-0.934-3.008l-0.654-2.121l-1.028-3.307l-0.318-1.018c0,0-0.28-0.561-0.486-1.439 c-0.448-1.915-0.551-5.344,3.288-7.903c1.252-0.831,2.569-1.532,3.868-2.111c-0.093-0.822-0.533-2.027-1.999-3.494 c0,0-0.579-0.29-0.925-0.71c-0.168-0.187-0.271-0.392-0.271-0.617c0-0.178,0.075-0.355,0.262-0.542 c0.196-0.224,0.626-0.346,1.224-0.355c0.355,0,0.766,0.037,1.214,0.121c1.831,0.346,4.297,1.457,6.072,3.606 c1.887-0.514,3.167-0.71,3.167-0.71s6.848-2.298,10.071,2.616c0.243,0.374,0.476,0.794,0.673,1.261 c0.262,0.607,0.561,1.383,0.888,2.298c0.374,1.028,0.775,2.223,1.205,3.55c0.187,0.57,0.374,1.158,0.57,1.766 c0.318,0.99,0.645,2.037,0.972,3.111l0.149,0.486c0.411-0.346,0.953-0.766,1.588-1.177c1.037-0.663,2.345-1.317,3.849-1.663 c0.579-0.14,1.084-0.187,1.523-0.178c0.159,0,0.318,0.019,0.458,0.037c0.075,0.009,0.159,0.019,0.224,0.037 c0.178,0.028,0.346,0.065,0.495,0.121c0.065,0.019,0.131,0.047,0.196,0.084c0.196,0.065,0.364,0.159,0.523,0.262 c0.308,0.205,0.32,0.246,0.488,0.47C75.443,48.161,75.553,48.952,75.123,49.251z"/><path fill="#88ae45" d="M41.875,66.625l-1.038-1.23c-1.168-0.551-2.719-1.214-4.54-1.84 c0.747-1.093,1.672-2.971,1.327-5.278c0.439,0.065,1.11-0.532,1.502-0.401L41.875,66.625z"/><path fill="#88ae45" d="M70.246,53.278c-0.925,0.916-2.17,2.445-2.871,3.472L65.25,49.5 c0.411-0.346,1.483-0.51,2.118-0.921C68.19,51.895,69.227,52.895,70.246,53.278z"/><path fill="#88ae45" d="M64.659,46.159c-3.204-0.645-9.94-1.588-15.302,0.439c-6.287,2.382-10.08,6.745-11.519,8.669 l-0.654-2.121l-1.028-3.307l14.751-10.117l11.977,1.121c0.374,1.028,0.775,2.223,1.205,3.55 C64.276,44.963,64.463,45.552,64.659,46.159z"/><path fill="#fff" d="M16.5,55h-10C6.224,55,6,54.776,6,54.5S6.224,54,6.5,54h10c0.276,0,0.5,0.224,0.5,0.5 S16.777,55,16.5,55z M19.5,55h-1c-0.276,0-0.5-0.224-0.5-0.5s0.224-0.5,0.5-0.5h1c0.276,0,0.5,0.224,0.5,0.5S19.777,55,19.5,55z M24.491,57H15.5c-0.276,0-0.5-0.224-0.5-0.5s0.224-0.5,0.5-0.5h8.991c0.276,0,0.5,0.224,0.5,0.5S24.767,57,24.491,57z M13.5,57 h-1c-0.276,0-0.5-0.224-0.5-0.5s0.224-0.5,0.5-0.5h1c0.276,0,0.5,0.224,0.5,0.5S13.777,57,13.5,57z M10.5,57h-2 C8.224,57,8,56.776,8,56.5S8.224,56,8.5,56h2c0.276,0,0.5,0.224,0.5,0.5S10.777,57,10.5,57z M16.5,59h-2 c-0.276,0-0.5-0.224-0.5-0.5s0.224-0.5,0.5-0.5h2c0.276,0,0.5,0.224,0.5,0.5S16.776,59,16.5,59z M19.5,50c-0.177,0-0.823,0-1,0 c-0.276,0-0.5,0.224-0.5,0.5s0.224,0.5,0.5,0.5c0.177,0,0.823,0,1,0c0.276,0,0.5-0.224,0.5-0.5S19.776,50,19.5,50z M19.5,52 c-0.177,0-4.823,0-5,0c-0.276,0-0.5,0.224-0.5,0.5s0.224,0.5,0.5,0.5c0.177,0,4.823,0,5,0c0.276,0,0.5-0.224,0.5-0.5 S19.776,52,19.5,52z M24.5,54c-0.177,0-2.823,0-3,0c-0.276,0-0.5,0.224-0.5,0.5s0.224,0.5,0.5,0.5c0.177,0,2.823,0,3,0 c0.276,0,0.5-0.224,0.5-0.5S24.776,54,24.5,54z"/><path fill="#fff" d="M69.5,21h-10c-0.276,0-0.5-0.224-0.5-0.5s0.224-0.5,0.5-0.5h10c0.276,0,0.5,0.224,0.5,0.5 S69.776,21,69.5,21z M73.5,21h-2c-0.276,0-0.5-0.224-0.5-0.5s0.224-0.5,0.5-0.5h2c0.276,0,0.5,0.224,0.5,0.5S73.776,21,73.5,21z M78.5,23h-10c-0.276,0-0.5-0.224-0.5-0.5s0.224-0.5,0.5-0.5h10c0.276,0,0.5,0.224,0.5,0.5S78.777,23,78.5,23z M66.5,23h-1 c-0.276,0-0.5-0.224-0.5-0.5s0.224-0.5,0.5-0.5h1c0.276,0,0.5,0.224,0.5,0.5S66.776,23,66.5,23z M63.47,23H61.5 c-0.276,0-0.5-0.224-0.5-0.5s0.224-0.5,0.5-0.5h1.97c0.276,0,0.5,0.224,0.5,0.5S63.746,23,63.47,23z M72.5,19h-5 c-0.276,0-0.5-0.224-0.5-0.5s0.224-0.5,0.5-0.5h5c0.276,0,0.5,0.224,0.5,0.5S72.777,19,72.5,19z M69.5,25h-2 c-0.276,0-0.5-0.224-0.5-0.5s0.224-0.5,0.5-0.5h2c0.276,0,0.5,0.224,0.5,0.5S69.776,25,69.5,25z"/><path fill="#472b29" d="M75.92,48.79c-0.5,0.11-1.02,0.38-1.39,0.61c0.02,0.2,0.02,0.4,0.02,0.6 c0,12.44-10.12,22.55-22.55,22.55c-7.88,0-14.83-4.07-18.85-10.21h-0.01c-0.54-0.05-1.25-0.15-1.86-0.34 C35.43,69.14,43.16,73.95,52,73.95c13.21,0,23.95-10.74,23.95-23.95C75.95,49.59,75.94,49.19,75.92,48.79z M29.45,50 c0-12.43,10.12-22.55,22.55-22.55c11.48,0,20.99,8.63,22.37,19.75c0.5,0.2,1.07,0.48,1.49,0.79C74.84,35.71,64.53,26.05,52,26.05 c-13.21,0-23.95,10.74-23.95,23.95c0,3.57,0.79,6.97,2.21,10.02c0.28-0.41,0.73-0.68,1.14-0.86C30.15,56.36,29.45,53.26,29.45,50z"/><path fill="#472b29" d="M51.077,73.051c-2.975,0-5.862-0.572-8.581-1.701c-0.137-0.057-0.242-0.172-0.286-0.314 l-1.607-5.199c-1.441-0.678-2.939-1.284-4.468-1.81c-1.165-0.391-2.362-0.734-3.554-1.019c-0.02-0.004-0.039-0.008-0.054-0.012 l-0.837-0.188c-0.012-0.003-0.118-0.025-0.13-0.029c-0.232-0.044-0.422-0.082-0.626-0.113c-0.01-0.001-0.151-0.031-0.161-0.034 c-0.119-0.025-0.255-0.051-0.383-0.068c-0.467-0.078-0.858-0.371-1.062-0.786c-0.2-0.408-0.194-0.867,0.017-1.262 c0.068-0.124,0.145-0.245,0.233-0.366c0.023-0.046,0.087-0.137,0.165-0.228c0.081-0.117,0.203-0.255,0.358-0.397 c0.02-0.03,0.109-0.109,0.187-0.175c0.106-0.098,0.227-0.198,0.366-0.291c0.051-0.046,0.106-0.085,0.163-0.123 c1.734-1.133,4.414-1.568,6.891-1.153c0.139,0.021,0.277,0.045,0.416,0.074l-2.76-8.884l0,0c-0.006,0-0.288-0.587-0.496-1.476 c-0.461-1.972-0.621-5.688,3.498-8.434c1.1-0.73,2.305-1.398,3.587-1.991c-0.204-0.88-0.799-1.836-1.742-2.791 c-0.193-0.105-0.677-0.393-1.011-0.8c-0.25-0.276-0.384-0.596-0.384-0.934c0-0.323,0.137-0.625,0.408-0.896 c0.271-0.312,0.807-0.489,1.569-0.502c0,0,0.001,0,0.001,0c0.412,0,0.852,0.044,1.314,0.131c0.875,0.165,3.842,0.9,6.156,3.532 c1.723-0.454,2.865-0.632,2.916-0.64c-0.011-0.005,7.169-2.342,10.564,2.836c0.286,0.439,0.526,0.89,0.716,1.342 c0.265,0.614,0.567,1.398,0.897,2.324c0.341,0.938,0.726,2.071,1.209,3.563l0.57,1.767c0.297,0.925,0.602,1.898,0.907,2.898 c0.345-0.265,0.698-0.514,1.055-0.745c1.309-0.838,2.657-1.42,4.009-1.73c0.565-0.138,1.118-0.2,1.646-0.19c0,0,0.001,0,0.001,0 c0.17,0,0.351,0.021,0.511,0.041c0.123,0.016,0.222,0.031,0.302,0.055c0.163,0.021,0.356,0.068,0.526,0.132 c0.064,0.017,0.167,0.061,0.269,0.118c0.181,0.05,0.393,0.177,0.548,0.276c0.326,0.217,0.606,0.482,0.839,0.793 c0.228,0.295,0.324,0.668,0.266,1.045c-0.059,0.385-0.278,0.735-0.602,0.961l-0.379,0.275c-0.108,0.078-0.228,0.164-0.35,0.264 c-0.026,0.021-0.054,0.04-0.083,0.056l-0.257,0.192c-0.106,0.079-0.217,0.161-0.335,0.243l-0.631,0.487 c-1.018,0.812-1.954,1.64-2.777,2.456c-0.948,0.938-1.73,1.842-2.33,2.689l0.041,0.148c0.236,0.792,0.507,1.732,0.789,2.707 c0.433,1.5,0.889,3.083,1.287,4.364c0.045,0.146,0.021,0.305-0.064,0.431C66.441,69.657,59.248,73.051,51.077,73.051z M43.095,70.515c2.534,1.02,5.218,1.536,7.981,1.536c7.745,0,14.557-3.152,18.281-8.445c-0.382-1.243-0.812-2.733-1.221-4.15 c-0.28-0.972-0.551-1.909-0.789-2.709l-0.106-0.384c-0.039-0.142-0.014-0.293,0.069-0.414c0.651-0.955,1.52-1.973,2.583-3.026 c0.85-0.841,1.812-1.691,2.861-2.529c0.221-0.173,0.428-0.333,0.626-0.483c0.163-0.116,0.264-0.191,0.362-0.265 c0.096-0.071,0.188-0.14,0.28-0.204c0.007-0.005,0.022-0.016,0.039-0.027c0.134-0.108,0.265-0.203,0.384-0.289l0.385-0.279 c0.002-0.002,0.003-0.003,0.005-0.004c0.101-0.07,0.169-0.178,0.188-0.294c0.011-0.073,0.008-0.184-0.073-0.288 c-0.169-0.226-0.366-0.412-0.591-0.562c-0.151-0.097-0.277-0.161-0.404-0.203c-0.013-0.004-0.2-0.085-0.212-0.09 c-0.106-0.04-0.236-0.07-0.397-0.096c-0.1-0.024-0.141-0.027-0.179-0.032c-0.193-0.025-0.358-0.037-0.53-0.038 c-0.417,0-0.852,0.056-1.302,0.165c-1.246,0.286-2.488,0.823-3.698,1.598c-0.525,0.34-1.042,0.724-1.536,1.139 c-0.128,0.107-0.301,0.146-0.463,0.097c-0.161-0.047-0.288-0.172-0.337-0.332l-0.149-0.485c-0.326-1.075-0.653-2.118-0.969-3.106 l-0.569-1.762c-0.48-1.482-0.861-2.605-1.2-3.535c-0.324-0.909-0.619-1.673-0.877-2.272c-0.168-0.4-0.381-0.798-0.633-1.186 c-2.968-4.526-9.428-2.437-9.493-2.414c-0.095,0.021-1.361,0.219-3.194,0.718c-0.19,0.051-0.392-0.012-0.517-0.164 c-2.127-2.574-4.961-3.278-5.78-3.433c-0.396-0.074-0.784-0.113-1.122-0.113c-0.549,0.009-0.795,0.125-0.848,0.185 c-0.099,0.101-0.138,0.164-0.138,0.213c0,0.082,0.048,0.177,0.142,0.281c0.285,0.347,0.772,0.595,0.777,0.598 c0.048,0.023,0.092,0.056,0.13,0.094c1.282,1.281,2.002,2.557,2.142,3.791c0.025,0.217-0.094,0.425-0.293,0.514 c-1.364,0.608-2.641,1.305-3.795,2.071c-3.434,2.289-3.569,5.272-3.078,7.372c0.188,0.803,0.444,1.325,0.447,1.33l3.059,9.835 c0.053,0.179,0.002,0.372-0.132,0.501c-0.135,0.131-0.329,0.172-0.505,0.115c-0.39-0.131-0.769-0.222-1.158-0.28 c-2.251-0.376-4.652,0-6.127,0.962l-0.105,0.074c-0.022,0.021-0.059,0.052-0.084,0.068c-0.106,0.068-0.197,0.146-0.288,0.229 c-0.051,0.043-0.092,0.075-0.121,0.109c-0.149,0.144-0.227,0.229-0.295,0.325c-0.062,0.075-0.091,0.115-0.114,0.155 c-0.091,0.129-0.145,0.213-0.19,0.298c-0.077,0.144-0.033,0.279,0,0.347c0.062,0.126,0.18,0.216,0.316,0.238 c0.138,0.02,0.301,0.049,0.443,0.08l0.025,0.517l0.076-0.494c0.22,0.033,0.425,0.074,0.635,0.117 c0.018,0.003,0.124,0.025,0.141,0.031c0.033,0.004,0.078,0.013,0.108,0.023l0.755,0.168c0.021,0.003,0.04,0.007,0.056,0.012 c1.244,0.295,2.475,0.647,3.676,1.051c1.579,0.542,3.124,1.169,4.594,1.862c0.061,0.025,0.125,0.058,0.189,0.09 c0.121,0.061,0.212,0.169,0.252,0.299L43.095,70.515z M74.366,49.812h0.01H74.366z"/><circle cx="44.247" cy="53.493" r=".934" fill="#472b29"/><circle cx="57.326" cy="48.822" r=".934" fill="#472b29"/><path fill="none" d="M55.205,63.423c-0.019-0.019-0.019-0.037-0.028-0.047c-0.037-0.103-0.065-0.205-0.075-0.308 C55.158,63.18,55.196,63.293,55.205,63.423z"/><path fill="#472b29" d="M61.978,58.351c-0.42-0.234-0.934-0.271-1.411-0.121c-0.663-0.402-1.457-0.626-2.307-0.626 c-1.878,0-3.485,1.112-4.073,2.663c-0.71-0.476-1.579-0.747-2.513-0.747c-1.775,0-3.307,0.99-3.97,2.401 c-0.673,0.103-1.252,0.561-1.485,1.233c-0.822-0.71-1.541-1.663-2.13-2.896c-0.495-1.056,0.121-2.298,1.252-2.578 c3.204-0.803,10.118-2.494,14.135-4.297c1.009-0.458,2.186,0.084,2.532,1.14C62.352,55.595,62.539,56.977,61.978,58.351z"/><path fill="#fdfcef" d="M59.773,58.668c-0.626,0.561-0.841,1.411-0.589,2.111c-0.589-0.28-1.411-0.299-2.214,0 c-1.196,0.43-1.952,1.401-1.868,2.279c-0.374-0.925-1.532-1.513-2.831-1.364c-1.224,0.131-2.186,0.869-2.438,1.784 c-0.112-0.682-0.589-1.261-1.28-1.495c-0.972-0.299-1.999,0.215-2.336,1.168c0.981,0.869,2.111,1.383,3.316,1.644 c0.178,0.037,0.364,0.075,0.551,0.103c1.411,0.215,2.924,0.103,4.438-0.196c0.159-0.028,0.318-0.065,0.467-0.112 c0.411-0.084,0.794-0.196,1.158-0.318c0,0,0,0,0.009,0c1.719-0.598,2.961-1.495,3.886-2.541c0.009,0,0.009-0.009,0.009-0.009 c0.897-1.028,1.495-2.195,1.924-3.372C61.305,57.986,60.418,58.089,59.773,58.668z M55.177,63.377 c-0.037-0.103-0.065-0.205-0.075-0.308c0.056,0.112,0.093,0.224,0.103,0.355C55.186,63.405,55.186,63.386,55.177,63.377z"/><path fill="none" d="M60.063,61.742c-0.009,0.009-0.009,0.009-0.019-0.009c0.009,0,0.009-0.009,0.009-0.009 C60.063,61.732,60.063,61.732,60.063,61.742z"/><path fill="none" d="M55.205,63.423c-0.019-0.019-0.019-0.037-0.028-0.047c-0.037-0.103-0.065-0.205-0.075-0.308 C55.158,63.18,55.196,63.293,55.205,63.423z"/><path fill="none" d="M60.063,61.742c-0.009,0.009-0.009,0.009-0.019-0.009c0.009,0,0.009-0.009,0.009-0.009 C60.063,61.732,60.063,61.732,60.063,61.742z"/><path fill="none" d="M55.205,63.423c-0.019-0.019-0.019-0.037-0.028-0.047c-0.037-0.103-0.065-0.205-0.075-0.308 C55.158,63.18,55.196,63.293,55.205,63.423z"/><path fill="#f27e97" d="M59.773,58.668c-0.626,0.561-0.841,1.411-0.589,2.111c-0.589-0.28-1.411-0.299-2.214,0 c-0.598,0.215-1.093,0.57-1.411,0.981c-0.336,0.402-0.495,0.859-0.458,1.299c-0.196-0.486-0.607-0.878-1.14-1.112 c-0.486-0.224-1.074-0.327-1.691-0.252c-1.224,0.131-2.186,0.869-2.438,1.784c-0.112-0.682-0.589-1.261-1.28-1.495 c-0.29-0.084-0.579-0.103-0.85-0.065c0.663-1.411,2.195-2.401,3.97-2.401c0.934,0,1.803,0.271,2.513,0.747 c0.589-1.551,2.195-2.663,4.073-2.663c0.85,0,1.644,0.224,2.307,0.626C60.287,58.304,60.007,58.453,59.773,58.668z"/><path fill="#472b29" d="M64.089,44.394c-0.056-0.019-0.121-0.037-0.178-0.056c0.047,0,0.103-0.009,0.15-0.028 C64.071,44.337,64.08,44.365,64.089,44.394z"/><path fill="#685446" d="M36.22,50.67c-0.003,0.004-0.007,0.007-0.01,0.011c-0.041,2.004-1.196,4.364-3.47,4.939 c-1.53,0.39-1.76,0.53-3.24-0.12c1-2,1.07-2.57,1.45-3.01c-0.29-0.05-0.57-0.11-0.86-0.2c-0.35-0.11-1.03-0.38-1.34-0.54 c-0.01-0.13-0.18-3.22,0.09-4.6c0.91-0.15,2.52-0.02,3.5,0.27c1.64,0.47,2.93,1.53,3.64,2.8c0.08,0.03,0.16,0.06,0.24,0.1 c0.005,0.108-0.007,0.222-0.009,0.333C36.214,50.658,36.217,50.664,36.22,50.67z"/><path fill="#472b29" d="M31.078,56.448c-0.496,0-0.983-0.141-1.779-0.49c-0.125-0.056-0.223-0.159-0.269-0.288 s-0.038-0.271,0.023-0.394c0.463-0.926,0.721-1.534,0.909-1.978c0.075-0.177,0.14-0.33,0.203-0.467 c-0.074-0.02-0.148-0.041-0.223-0.064c-0.364-0.115-1.077-0.396-1.421-0.573c-0.154-0.08-0.256-0.233-0.269-0.407 c-0.002-0.03-0.195-3.235,0.098-4.732c0.04-0.205,0.203-0.363,0.409-0.397c0.979-0.163,2.649-0.035,3.724,0.283 c1.63,0.468,3.022,1.513,3.843,2.878c0.04,0.018,0.08,0.035,0.119,0.056c0.161,0.08,0.266,0.241,0.275,0.421 c0.004,0.083,0,0.169-0.004,0.255l-0.003,0.077c0.003,0.041,0.002,0.082-0.004,0.122c-0.065,2.139-1.289,4.709-3.846,5.355 l-0.312,0.081C31.925,56.347,31.498,56.448,31.078,56.448z M30.183,55.244c0.803,0.312,1.073,0.242,2.118-0.027l0.316-0.081 c1.981-0.501,3.056-2.626,3.093-4.465c0-0.008,0-0.015,0.001-0.022c0-0.001,0-0.002,0-0.003v-0.004 c-0.069-0.045-0.127-0.105-0.167-0.178c-0.679-1.215-1.897-2.148-3.341-2.563c-0.805-0.238-2.067-0.356-2.926-0.297 c-0.138,1.146-0.08,3.06-0.043,3.821c0.323,0.142,0.766,0.312,1.008,0.389c0.267,0.082,0.527,0.137,0.796,0.185 c0.177,0.03,0.324,0.155,0.385,0.324c0.06,0.17,0.025,0.359-0.093,0.495c-0.15,0.174-0.249,0.406-0.446,0.871 C30.723,54.063,30.516,54.553,30.183,55.244z"/><g><path fill="#472b29" d="M37.193,53.128c0,0.009-0.009,0.009-0.009,0.019l-0.009-0.028 C37.184,53.128,37.184,53.128,37.193,53.128z"/></g><g><path fill="#685446" d="M64.771,43.814c-0.149,0.252-0.402,0.42-0.71,0.495c-0.047,0.019-0.103,0.028-0.15,0.028 c-0.439-0.15-0.953-0.29-1.541-0.42c-2.905-0.663-7.567-0.972-13.453,1.168c-4.288,1.56-7.119,3.335-8.987,4.942 c-1.364,1.168-2.214,2.261-2.737,3.102c-0.009,0-0.009,0-0.019-0.009c-0.691-0.43-1.336-1.214-1.756-2.205 c-0.561-1.336-0.561-2.691-0.065-3.531c0.075-0.112,0.159-0.224,0.243-0.346c0.009-0.009,0.019-0.028,0.037-0.047 c1.915-2.709,5.624-6.68,11.612-8.445c6.67-1.953,11.668-1.635,14.079-1.261c0,0.009,0.009,0.009,0.009,0.019 c0.729,0.075,1.289,0.691,1.289,1.429c0,0.224-0.056,0.448-0.149,0.635c0.084,0.037,0.168,0.075,0.243,0.121 c0.775,0.448,1.14,1.271,0.813,1.831c-0.056,0.093-0.121,0.178-0.206,0.243c0.187,0.047,0.364,0.121,0.542,0.224 C64.725,42.282,65.136,43.188,64.771,43.814z"/><path fill="#472b29" d="M37.193,53.628c-0.095,0-0.198-0.032-0.282-0.084h0c-0.793-0.493-1.505-1.381-1.953-2.435 c-0.611-1.456-0.625-2.98-0.036-3.98l0.261-0.375c0.02-0.029,0.043-0.056,0.068-0.08c2.064-2.931,5.823-6.831,11.852-8.608 c6.787-1.986,11.87-1.652,14.297-1.275c0.042,0.007,0.082,0.019,0.119,0.034c0.923,0.16,1.603,0.958,1.603,1.908 c0,0.131-0.014,0.264-0.042,0.394c0.504,0.321,0.874,0.798,1.012,1.315c0.081,0.307,0.073,0.614-0.021,0.888 c0.014,0.009,0.029,0.017,0.043,0.025c0.622,0.357,1.069,0.905,1.229,1.501c0.114,0.429,0.064,0.858-0.14,1.211 c-0.001,0.001-0.001,0.002-0.002,0.004c-0.214,0.359-0.576,0.616-1.021,0.725c-0.057,0.03-0.272,0.071-0.431,0.016 c-0.414-0.142-0.915-0.278-1.487-0.405c-2.809-0.641-7.37-0.961-13.174,1.149c-3.669,1.335-6.641,2.967-8.832,4.851 c-1.109,0.95-1.997,1.954-2.639,2.986C37.527,53.539,37.366,53.628,37.193,53.628z M35.997,47.335L35.77,47.66 c-0.411,0.698-0.373,1.909,0.11,3.061c0.292,0.688,0.711,1.284,1.184,1.694c0.662-0.96,1.516-1.89,2.542-2.769 c2.282-1.962,5.358-3.655,9.141-5.031c6.034-2.193,10.8-1.854,13.735-1.186c0.554,0.123,1.049,0.256,1.473,0.396 c0.146-0.046,0.297-0.118,0.385-0.265c0.088-0.153,0.069-0.328,0.037-0.447c-0.09-0.336-0.375-0.67-0.762-0.893 c-0.143-0.083-0.278-0.139-0.414-0.173c-0.186-0.047-0.328-0.195-0.368-0.382c-0.04-0.188,0.031-0.381,0.182-0.498 c0.026-0.02,0.054-0.056,0.085-0.106c0.068-0.117,0.052-0.263,0.025-0.363c-0.077-0.292-0.324-0.582-0.66-0.776 c-0.067-0.041-0.125-0.065-0.183-0.092c-0.124-0.056-0.228-0.164-0.273-0.292s-0.045-0.272,0.016-0.395 c0.062-0.123,0.097-0.272,0.097-0.411c0-0.482-0.361-0.883-0.84-0.933c-0.053-0.005-0.103-0.019-0.149-0.039 c-2.387-0.355-7.253-0.635-13.747,1.264c-5.753,1.696-9.345,5.425-11.345,8.255C36.033,47.291,36.016,47.313,35.997,47.335z M64.771,43.814h0.01H64.771z"/></g><g><path fill="#fdfcef" d="M46.656,79.819c0,0,1.567,0,3.5,0s3.5-1.567,3.5-3.5c0-1.781-1.335-3.234-3.055-3.455 c0.028-0.179,0.055-0.358,0.055-0.545c0-1.933-1.567-3.5-3.5-3.5c-1.032,0-1.95,0.455-2.59,1.165 c-0.384-1.808-1.987-3.165-3.91-3.165c-2.209,0-4,1.791-4,4c0,0.191,0.03,0.374,0.056,0.558 c-0.428-0.344-0.964-0.558-1.556-0.558c-1.228,0-2.245,0.887-2.455,2.055c-0.179-0.028-0.358-0.055-0.545-0.055 c-1.933,0-3.5,1.567-3.5,3.5s1.567,3.5,3.5,3.5s7.5,0,7.5,0v0.5h7V79.819z"/><path fill="#472b29" d="M48.406,75.319c-0.138,0-0.25-0.112-0.25-0.25c0-1.223,0.995-2.218,2.218-2.218 c0.034,0.009,0.737-0.001,1.244,0.136c0.133,0.036,0.212,0.173,0.176,0.306c-0.036,0.134-0.173,0.213-0.306,0.176 c-0.444-0.12-1.1-0.12-1.113-0.118c-0.948,0-1.719,0.771-1.719,1.718C48.656,75.207,48.544,75.319,48.406,75.319z M41.656,79.319 c-0.276,0-0.5,0.224-0.5,0.5s0.224,0.5,0.5,0.5s0.5-0.224,0.5-0.5S41.933,79.319,41.656,79.319z"/><path fill="#472b29" d="M50.156,80.319h-3.5c-0.276,0-0.5-0.224-0.5-0.5s0.224-0.5,0.5-0.5h3.5c1.654,0,3-1.346,3-3 c0-1.496-1.125-2.768-2.618-2.959c-0.134-0.018-0.255-0.088-0.336-0.196s-0.115-0.244-0.094-0.377 c0.023-0.154,0.048-0.308,0.048-0.468c0-1.654-1.346-3-3-3c-0.85,0-1.638,0.355-2.219,1c-0.125,0.139-0.321,0.198-0.5,0.148 c-0.182-0.049-0.321-0.195-0.36-0.379c-0.341-1.604-1.78-2.769-3.421-2.769c-1.93,0-3.5,1.57-3.5,3.5 c0,0.143,0.021,0.28,0.041,0.418c0.029,0.203-0.063,0.438-0.242,0.54s-0.396,0.118-0.556-0.01 c-0.365-0.293-0.794-0.448-1.243-0.448c-0.966,0-1.792,0.691-1.963,1.644c-0.048,0.267-0.296,0.446-0.569,0.405 c-0.154-0.024-0.308-0.049-0.468-0.049c-1.654,0-3,1.346-3,3s1.346,3,3,3h7.5c0.276,0,0.5,0.224,0.5,0.5s-0.224,0.5-0.5,0.5h-7.5 c-2.206,0-4-1.794-4-4s1.794-4,4-4c0.059,0,0.116,0.002,0.174,0.006c0.414-1.186,1.537-2.006,2.826-2.006 c0.349,0,0.689,0.061,1.011,0.18c0.165-2.333,2.115-4.18,4.489-4.18c1.831,0,3.466,1.127,4.153,2.774 c0.68-0.498,1.502-0.774,2.347-0.774c2.206,0,4,1.794,4,4c0,0.048-0.001,0.095-0.004,0.142c1.743,0.448,3.004,2.027,3.004,3.858 C54.156,78.525,52.362,80.319,50.156,80.319z"/><path fill="#472b29" d="M44.656,79.319c-0.159,0-0.841,0-1,0c-0.276,0-0.5,0.224-0.5,0.5s0.224,0.5,0.5,0.5 c0.159,0,0.841,0,1,0c0.276,0,0.5-0.224,0.5-0.5S44.932,79.319,44.656,79.319z"/></g></svg>